<mxfile host="app.diagrams.net" agent="Mozilla/5.0 (Windows NT 10.0; Win64; x64) AppleWebKit/537.36 (KHTML, like Gecko) Chrome/136.0.0.0 Safari/537.36" version="27.0.8">
  <diagram name="第 1 页" id="J_XPMj0fmB1WCct2d3TQ">
    <mxGraphModel dx="1426" dy="777" grid="1" gridSize="10" guides="1" tooltips="1" connect="1" arrows="1" fold="1" page="1" pageScale="1" pageWidth="827" pageHeight="1169" math="0" shadow="0">
      <root>
        <mxCell id="0" />
        <mxCell id="1" parent="0" />
        <mxCell id="FeQRiySvemCY9FXtaUAi-3" value="" style="edgeStyle=orthogonalEdgeStyle;rounded=0;orthogonalLoop=1;jettySize=auto;html=1;" edge="1" parent="1" source="FeQRiySvemCY9FXtaUAi-1" target="FeQRiySvemCY9FXtaUAi-2">
          <mxGeometry relative="1" as="geometry" />
        </mxCell>
        <mxCell id="FeQRiySvemCY9FXtaUAi-5" value="" style="edgeStyle=orthogonalEdgeStyle;rounded=0;orthogonalLoop=1;jettySize=auto;html=1;" edge="1" parent="1" source="FeQRiySvemCY9FXtaUAi-1" target="FeQRiySvemCY9FXtaUAi-4">
          <mxGeometry relative="1" as="geometry" />
        </mxCell>
        <mxCell id="FeQRiySvemCY9FXtaUAi-1" value="用户操作" style="rounded=0;whiteSpace=wrap;html=1;" vertex="1" parent="1">
          <mxGeometry x="354" y="30" width="120" height="60" as="geometry" />
        </mxCell>
        <mxCell id="FeQRiySvemCY9FXtaUAi-7" value="" style="edgeStyle=orthogonalEdgeStyle;rounded=0;orthogonalLoop=1;jettySize=auto;html=1;" edge="1" parent="1" source="FeQRiySvemCY9FXtaUAi-2" target="FeQRiySvemCY9FXtaUAi-6">
          <mxGeometry relative="1" as="geometry" />
        </mxCell>
        <mxCell id="FeQRiySvemCY9FXtaUAi-8" value="用户请求数据" style="edgeLabel;html=1;align=center;verticalAlign=middle;resizable=0;points=[];" vertex="1" connectable="0" parent="FeQRiySvemCY9FXtaUAi-7">
          <mxGeometry x="-0.1714" y="2" relative="1" as="geometry">
            <mxPoint as="offset" />
          </mxGeometry>
        </mxCell>
        <mxCell id="FeQRiySvemCY9FXtaUAi-2" value="日常询问" style="rounded=0;whiteSpace=wrap;html=1;" vertex="1" parent="1">
          <mxGeometry x="200" y="180" width="120" height="60" as="geometry" />
        </mxCell>
        <mxCell id="FeQRiySvemCY9FXtaUAi-16" value="" style="edgeStyle=orthogonalEdgeStyle;rounded=0;orthogonalLoop=1;jettySize=auto;html=1;" edge="1" parent="1" source="FeQRiySvemCY9FXtaUAi-4" target="FeQRiySvemCY9FXtaUAi-15">
          <mxGeometry relative="1" as="geometry" />
        </mxCell>
        <mxCell id="FeQRiySvemCY9FXtaUAi-4" value="主题场景搭建" style="rounded=0;whiteSpace=wrap;html=1;" vertex="1" parent="1">
          <mxGeometry x="550" y="130" width="120" height="60" as="geometry" />
        </mxCell>
        <mxCell id="FeQRiySvemCY9FXtaUAi-10" value="" style="edgeStyle=orthogonalEdgeStyle;rounded=0;orthogonalLoop=1;jettySize=auto;html=1;" edge="1" parent="1" source="FeQRiySvemCY9FXtaUAi-6" target="FeQRiySvemCY9FXtaUAi-9">
          <mxGeometry relative="1" as="geometry" />
        </mxCell>
        <mxCell id="FeQRiySvemCY9FXtaUAi-6" value="阿里云百炼大模型" style="ellipse;whiteSpace=wrap;html=1;rounded=0;" vertex="1" parent="1">
          <mxGeometry x="220" y="310" width="80" height="80" as="geometry" />
        </mxCell>
        <mxCell id="FeQRiySvemCY9FXtaUAi-12" value="" style="edgeStyle=orthogonalEdgeStyle;rounded=0;orthogonalLoop=1;jettySize=auto;html=1;" edge="1" parent="1" source="FeQRiySvemCY9FXtaUAi-9" target="FeQRiySvemCY9FXtaUAi-11">
          <mxGeometry relative="1" as="geometry" />
        </mxCell>
        <mxCell id="FeQRiySvemCY9FXtaUAi-9" value="查询B系统使用知识库、查询B系统组件知识库、" style="whiteSpace=wrap;html=1;rounded=0;" vertex="1" parent="1">
          <mxGeometry x="200" y="430" width="120" height="60" as="geometry" />
        </mxCell>
        <mxCell id="FeQRiySvemCY9FXtaUAi-14" value="" style="edgeStyle=orthogonalEdgeStyle;rounded=0;orthogonalLoop=1;jettySize=auto;html=1;" edge="1" parent="1" source="FeQRiySvemCY9FXtaUAi-11" target="FeQRiySvemCY9FXtaUAi-13">
          <mxGeometry relative="1" as="geometry" />
        </mxCell>
        <mxCell id="FeQRiySvemCY9FXtaUAi-11" value="大模型处理相关知识并整合成用户理解话术" style="whiteSpace=wrap;html=1;rounded=0;" vertex="1" parent="1">
          <mxGeometry x="200" y="525" width="120" height="60" as="geometry" />
        </mxCell>
        <mxCell id="FeQRiySvemCY9FXtaUAi-13" value="Unity端展示AI回答" style="whiteSpace=wrap;html=1;rounded=0;" vertex="1" parent="1">
          <mxGeometry x="50" y="640" width="120" height="60" as="geometry" />
        </mxCell>
        <mxCell id="FeQRiySvemCY9FXtaUAi-18" value="" style="edgeStyle=orthogonalEdgeStyle;rounded=0;orthogonalLoop=1;jettySize=auto;html=1;" edge="1" parent="1" source="FeQRiySvemCY9FXtaUAi-15" target="FeQRiySvemCY9FXtaUAi-17">
          <mxGeometry relative="1" as="geometry" />
        </mxCell>
        <mxCell id="FeQRiySvemCY9FXtaUAi-15" value="用户输入具体主题" style="whiteSpace=wrap;html=1;rounded=0;" vertex="1" parent="1">
          <mxGeometry x="550" y="230" width="120" height="60" as="geometry" />
        </mxCell>
        <mxCell id="FeQRiySvemCY9FXtaUAi-20" value="" style="edgeStyle=orthogonalEdgeStyle;rounded=0;orthogonalLoop=1;jettySize=auto;html=1;" edge="1" parent="1" source="FeQRiySvemCY9FXtaUAi-17" target="FeQRiySvemCY9FXtaUAi-19">
          <mxGeometry relative="1" as="geometry" />
        </mxCell>
        <mxCell id="FeQRiySvemCY9FXtaUAi-17" value="阿里云百炼大模型" style="ellipse;whiteSpace=wrap;html=1;rounded=0;" vertex="1" parent="1">
          <mxGeometry x="570" y="310" width="80" height="80" as="geometry" />
        </mxCell>
        <mxCell id="FeQRiySvemCY9FXtaUAi-22" value="" style="edgeStyle=orthogonalEdgeStyle;rounded=0;orthogonalLoop=1;jettySize=auto;html=1;" edge="1" parent="1" source="FeQRiySvemCY9FXtaUAi-19" target="FeQRiySvemCY9FXtaUAi-21">
          <mxGeometry relative="1" as="geometry" />
        </mxCell>
        <mxCell id="FeQRiySvemCY9FXtaUAi-19" value="根据用户输入需求信息进行知识点提取生成步骤" style="whiteSpace=wrap;html=1;rounded=0;" vertex="1" parent="1">
          <mxGeometry x="550" y="410" width="120" height="60" as="geometry" />
        </mxCell>
        <mxCell id="FeQRiySvemCY9FXtaUAi-24" value="" style="edgeStyle=orthogonalEdgeStyle;rounded=0;orthogonalLoop=1;jettySize=auto;html=1;" edge="1" parent="1" source="FeQRiySvemCY9FXtaUAi-21" target="FeQRiySvemCY9FXtaUAi-23">
          <mxGeometry relative="1" as="geometry" />
        </mxCell>
        <mxCell id="FeQRiySvemCY9FXtaUAi-32" style="edgeStyle=orthogonalEdgeStyle;rounded=0;orthogonalLoop=1;jettySize=auto;html=1;exitX=0.5;exitY=1;exitDx=0;exitDy=0;entryX=0.5;entryY=0;entryDx=0;entryDy=0;" edge="1" parent="1" source="FeQRiySvemCY9FXtaUAi-21" target="FeQRiySvemCY9FXtaUAi-33">
          <mxGeometry relative="1" as="geometry">
            <mxPoint x="650" y="620" as="targetPoint" />
          </mxGeometry>
        </mxCell>
        <mxCell id="FeQRiySvemCY9FXtaUAi-39" style="edgeStyle=orthogonalEdgeStyle;rounded=0;orthogonalLoop=1;jettySize=auto;html=1;exitX=1;exitY=0.5;exitDx=0;exitDy=0;" edge="1" parent="1" source="FeQRiySvemCY9FXtaUAi-21" target="FeQRiySvemCY9FXtaUAi-38">
          <mxGeometry relative="1" as="geometry" />
        </mxCell>
        <mxCell id="FeQRiySvemCY9FXtaUAi-21" value="返回给Unity端展示具体步骤" style="whiteSpace=wrap;html=1;rounded=0;" vertex="1" parent="1">
          <mxGeometry x="550" y="510" width="120" height="60" as="geometry" />
        </mxCell>
        <mxCell id="FeQRiySvemCY9FXtaUAi-26" value="" style="edgeStyle=orthogonalEdgeStyle;rounded=0;orthogonalLoop=1;jettySize=auto;html=1;" edge="1" parent="1" source="FeQRiySvemCY9FXtaUAi-23" target="FeQRiySvemCY9FXtaUAi-25">
          <mxGeometry relative="1" as="geometry" />
        </mxCell>
        <mxCell id="FeQRiySvemCY9FXtaUAi-23" value="Unity客户端每隔五分钟获取一下场景中的模型组件的具体信息将信息传输给大模型" style="whiteSpace=wrap;html=1;rounded=0;" vertex="1" parent="1">
          <mxGeometry x="430" y="620" width="120" height="60" as="geometry" />
        </mxCell>
        <mxCell id="FeQRiySvemCY9FXtaUAi-28" value="" style="edgeStyle=orthogonalEdgeStyle;rounded=0;orthogonalLoop=1;jettySize=auto;html=1;" edge="1" parent="1" source="FeQRiySvemCY9FXtaUAi-25" target="FeQRiySvemCY9FXtaUAi-27">
          <mxGeometry relative="1" as="geometry" />
        </mxCell>
        <mxCell id="FeQRiySvemCY9FXtaUAi-29" value="具体结果" style="edgeLabel;html=1;align=center;verticalAlign=middle;resizable=0;points=[];" vertex="1" connectable="0" parent="FeQRiySvemCY9FXtaUAi-28">
          <mxGeometry y="-1" relative="1" as="geometry">
            <mxPoint as="offset" />
          </mxGeometry>
        </mxCell>
        <mxCell id="FeQRiySvemCY9FXtaUAi-25" value="根据B系统组件知识库及B系统使用知识库对用户当前场景信息给出评价和建议" style="whiteSpace=wrap;html=1;rounded=0;" vertex="1" parent="1">
          <mxGeometry x="430" y="740" width="120" height="60" as="geometry" />
        </mxCell>
        <mxCell id="FeQRiySvemCY9FXtaUAi-27" value="Unity端展示具体结果" style="whiteSpace=wrap;html=1;rounded=0;" vertex="1" parent="1">
          <mxGeometry x="530" y="950" width="120" height="60" as="geometry" />
        </mxCell>
        <mxCell id="FeQRiySvemCY9FXtaUAi-35" value="" style="edgeStyle=orthogonalEdgeStyle;rounded=0;orthogonalLoop=1;jettySize=auto;html=1;" edge="1" parent="1" source="FeQRiySvemCY9FXtaUAi-33" target="FeQRiySvemCY9FXtaUAi-34">
          <mxGeometry relative="1" as="geometry" />
        </mxCell>
        <mxCell id="FeQRiySvemCY9FXtaUAi-33" value="当所有步骤都已完成或者用户手动点击评价按钮" style="rounded=0;whiteSpace=wrap;html=1;" vertex="1" parent="1">
          <mxGeometry x="610" y="620" width="120" height="60" as="geometry" />
        </mxCell>
        <mxCell id="FeQRiySvemCY9FXtaUAi-37" value="" style="edgeStyle=orthogonalEdgeStyle;rounded=0;orthogonalLoop=1;jettySize=auto;html=1;entryX=0.5;entryY=0;entryDx=0;entryDy=0;" edge="1" parent="1" source="FeQRiySvemCY9FXtaUAi-34" target="FeQRiySvemCY9FXtaUAi-27">
          <mxGeometry relative="1" as="geometry">
            <mxPoint x="670" y="900" as="targetPoint" />
          </mxGeometry>
        </mxCell>
        <mxCell id="FeQRiySvemCY9FXtaUAi-34" value="根据B系统组件知识库和调优后的大模型对当前场景做组件关联及组件介绍" style="whiteSpace=wrap;html=1;rounded=0;" vertex="1" parent="1">
          <mxGeometry x="610" y="760" width="120" height="60" as="geometry" />
        </mxCell>
        <mxCell id="FeQRiySvemCY9FXtaUAi-41" value="" style="edgeStyle=orthogonalEdgeStyle;rounded=0;orthogonalLoop=1;jettySize=auto;html=1;" edge="1" parent="1" source="FeQRiySvemCY9FXtaUAi-38" target="FeQRiySvemCY9FXtaUAi-40">
          <mxGeometry relative="1" as="geometry" />
        </mxCell>
        <mxCell id="FeQRiySvemCY9FXtaUAi-42" value="具体数据及模型预制表" style="edgeLabel;html=1;align=center;verticalAlign=middle;resizable=0;points=[];" vertex="1" connectable="0" parent="FeQRiySvemCY9FXtaUAi-41">
          <mxGeometry x="0.075" relative="1" as="geometry">
            <mxPoint as="offset" />
          </mxGeometry>
        </mxCell>
        <mxCell id="FeQRiySvemCY9FXtaUAi-38" value="进行场景运行数据表展示，根据场景运行结果的数据" style="rounded=0;whiteSpace=wrap;html=1;" vertex="1" parent="1">
          <mxGeometry x="810" y="620" width="120" height="60" as="geometry" />
        </mxCell>
        <mxCell id="FeQRiySvemCY9FXtaUAi-43" style="edgeStyle=orthogonalEdgeStyle;rounded=0;orthogonalLoop=1;jettySize=auto;html=1;exitX=0.5;exitY=1;exitDx=0;exitDy=0;" edge="1" parent="1" source="FeQRiySvemCY9FXtaUAi-40">
          <mxGeometry relative="1" as="geometry">
            <mxPoint x="590" y="950" as="targetPoint" />
          </mxGeometry>
        </mxCell>
        <mxCell id="FeQRiySvemCY9FXtaUAi-40" value="大模型分析具体数据和预制表信息选出表格及数据" style="whiteSpace=wrap;html=1;rounded=0;" vertex="1" parent="1">
          <mxGeometry x="810" y="760" width="120" height="80" as="geometry" />
        </mxCell>
      </root>
    </mxGraphModel>
  </diagram>
</mxfile>
